PathFileType	4	(X/Y/Z)	/Users/itak/Documents/Research/Walk-IL/dataset/trc/00187_00008.trc
DataRate	CameraRate	NumFrames	NumMarkers	Units	OrigDataRate	OrigDataStartFrame	OrigNumFrames
100.000000	100.000000	4	53	mm	100.000000	95	766
Frame#	Time	RPSI			LPSI			L3			STRN			T10			C7			CLAV			RBAK			LBAK			LSHO			LUPA			LAEL			LAOL			LWTS			LWPS			LFRA			LIFD			LHPS			LHTS			RSHO			RUPA			RAEL			RAOL			RWTS			RWPS			RFRA			RIFD			RHTS			RHPS			RBHD			LFHD			RFHD			LBHD			LHIP			RHIP			RASI			LASI			LKNE			LTHI			LANK			LTIP			LTOE			LMT1			LMT5			LHEE			RKNE			RTHI			RANK			RTIP			RTOE			RMT1			RMT5			RHEE			
		X1	Y1	Z1	X2	Y2	Z2	X3	Y3	Z3	X4	Y4	Z4	X5	Y5	Z5	X6	Y6	Z6	X7	Y7	Z7	X8	Y8	Z8	X9	Y9	Z9	X10	Y10	Z10	X11	Y11	Z11	X12	Y12	Z12	X13	Y13	Z13	X14	Y14	Z14	X15	Y15	Z15	X16	Y16	Z16	X17	Y17	Z17	X18	Y18	Z18	X19	Y19	Z19	X20	Y20	Z20	X21	Y21	Z21	X22	Y22	Z22	X23	Y23	Z23	X24	Y24	Z24	X25	Y25	Z25	X26	Y26	Z26	X27	Y27	Z27	X28	Y28	Z28	X29	Y29	Z29	X30	Y30	Z30	X31	Y31	Z31	X32	Y32	Z32	X33	Y33	Z33	X34	Y34	Z34	X35	Y35	Z35	X36	Y36	Z36	X37	Y37	Z37	X38	Y38	Z38	X39	Y39	Z39	X40	Y40	Z40	X41	Y41	Z41	X42	Y42	Z42	X43	Y43	Z43	X44	Y44	Z44	X45	Y45	Z45	X46	Y46	Z46	X47	Y47	Z47	X48	Y48	Z48	X49	Y49	Z49	X50	Y50	Z50	X51	Y51	Z51	X52	Y52	Z52	X53	Y53	Z53	

96	0.9500000000000001	404.0946044921875	1039.8759765625	1221.222778320312	364.2287292480469	1039.66015625	1105.251831054688	385.6845397949219	1076.417724609375	1166.90576171875	627.1348266601562	1286.327880859375	1064.63818359375	349.21875	1233.44482421875	1170.873901367188	400.9571533203125	1501.378784179688	1117.75244140625	593.1926879882812	1398.67529296875	1057.530029296875	379.964599609375	1335.540283203125	1255.515747070312	358.9904479980469	1469.576171875	1029.396240234375	402.1523742675781	1451.194702148438	929.8052978515625	338.86865234375	1316.371337890625	889.7227172851562	328.6193237304688	1100.99853515625	889.0105590820312	331.3962097167969	1089.490844726562	978.0841064453125	438.9186096191406	868.5147094726562	862.3500366210938	348.38818359375	847.2852783203125	876.885986328125	332.034912109375	989.2681884765625	875.97705078125	460.9571533203125	682.0847778320312	878.58740234375	368.7899475097656	777.6829223632812	871.16015625	435.5564880371094	787.9177856445312	843.8026123046875	522.2635498046875	1495.633911132812	1265.374755859375	528.8402709960938	1436.760498046875	1342.180297851562	532.696533203125	1155.31494140625	1424.89599609375	502.39794921875	1135.8251953125	1334.877685546875	671.1776123046875	930.5816650390625	1385.967163085938	614.7853393554688	916.982421875	1454.021606445312	564.7986450195312	1085.528076171875	1441.399658203125	680.6405029296875	741.1664428710938	1372.67236328125	701.51513671875	836.7078857421875	1393.802001953125	644.0465087890625	835.6766357421875	1450.381713867188	486.4059448242188	1673.856567382812	1154.741455078125	527.9769287109375	1700.01708984375	940.88623046875	608.710205078125	1723.15625	1039.441528320312	394.1509399414062	1654.798217773438	1054.093627929688	425.5784912109375	984.4585571289062	957.316650390625	583.5094604492188	994.1461791992188	1296.262451171875	645.4176635742188	1026.9443359375	1220.905883789062	562.2279663085938	1018.420959472656	977.6763305664062	618.1741333007812	501.4363098144531	960.886474609375	558.1923217773438	636.5257568359375	938.732421875	604.6593627929688	40.30116271972656	1039.365356445312	614.4197387695312	265.7163391113281	983.3714599609375	790.1757202148438	44.31889343261719	921.6233520507812	783.2950439453125	41.49055099487305	990.701904296875	666.5101928710938	40.91353225708008	942.86865234375	607.0784912109375	39.28505706787109	1123.363159179688	581.8699951171875	497.4363098144531	1346.815795898438	628.5416870117188	767.1329956054688	1306.796142578125	171.460205078125	245.5839691162109	1493.500854492188	513.1596069335938	386.863525390625	1365.52880859375	272.5366516113281	47.88405990600586	1464.641479492188	255.2480316162109	98.20395660400391	1413.682983398438	215.4882965087891	139.9959411621094	1528.902465820312	143.3125762939453	284.1107177734375	1423.596313476562	
97	0.96	410.8961791992188	1041.21240234375	1215.722290039062	370.3788452148438	1040.93310546875	1100.027954101562	392.4027099609375	1077.798828125	1161.3896484375	633.3969116210938	1287.541748046875	1057.524047851562	355.988525390625	1234.937255859375	1165.226196289062	407.6758422851562	1502.693603515625	1111.674682617188	599.5647583007812	1399.926879882812	1050.5185546875	387.2857055664062	1337.075561523438	1249.639770507812	365.21240234375	1470.875610351562	1023.480163574219	408.047119140625	1452.551879882812	923.6785278320312	345.1696166992188	1317.63525390625	883.2120971679688	336.4897155761719	1102.046752929688	881.0523681640625	338.605712890625	1089.888916015625	970.094482421875	452.1778564453125	872.593505859375	852.3548583984375	362.1265258789062	848.878662109375	866.1930541992188	342.2685852050781	990.4009399414062	866.9426879882812	479.0257263183594	686.820556640625	865.666748046875	384.3096618652344	779.9393920898438	859.4365234375	450.9439697265625	792.4197998046875	832.3695068359375	529.7267456054688	1497.090209960938	1258.6240234375	536.8626708984375	1438.233642578125	1335.450439453125	542.43408203125	1156.494018554688	1417.88720703125	510.966796875	1137.109497070312	1328.241088867188	682.1068115234375	933.0105590820312	1375.529052734375	627.0288696289062	918.638427734375	1444.537231445312	575.2882690429688	1086.787963867188	1433.619018554688	693.3233642578125	743.8347778320312	1361.365234375	713.5792236328125	839.5490112304688	1382.468017578125	657.0607299804688	837.6725463867188	1440.064453125	493.5401916503906	1675.329345703125	1147.836547851562	533.459228515625	1700.835815429688	933.7786865234375	615.00537109375	1724.4091796875	1031.481201171875	400.5618896484375	1655.96728515625	1047.9072265625	430.652099609375	985.27685546875	951.8622436523438	591.2425537109375	995.0728149414062	1289.364379882812	652.3626708984375	1028.267578125	1213.543212890625	567.2916259765625	1019.581115722656	970.963623046875	620.8159790039062	501.2189331054688	958.611572265625	561.909423828125	636.6588745117188	935.3792114257812	604.6555786132812	40.2784423828125	1039.24560546875	615.5366821289062	265.5775451660156	982.1410522460938	790.3248901367188	44.17987442016602	921.732666015625	783.3955078125	41.42718124389648	990.8824462890625	666.6099853515625	40.88294982910156	942.8272094726562	606.9830322265625	39.35636901855469	1123.300048828125	601.1470336914062	496.9976196289062	1335.886962890625	640.051025390625	768.3109130859375	1298.150390625	192.2293701171875	247.5933532714844	1485.819946289062	532.5743408203125	386.0223388671875	1353.93603515625	295.9467468261719	51.49570465087891	1456.968017578125	276.1261901855469	100.2934799194336	1405.959228515625	239.1123199462891	143.6234741210938	1521.614013671875	162.0174713134766	284.8837585449219	1416.087158203125	
98	0.97	417.496826171875	1042.605224609375	1210.286010742188	376.3972778320312	1042.204467773438	1094.906127929688	398.9585266113281	1079.169189453125	1155.99853515625	639.5061645507812	1288.792602539062	1050.480590820312	362.6249084472656	1236.394775390625	1159.717407226562	414.2250671386719	1503.955444335938	1105.738037109375	605.7635498046875	1401.209594726562	1043.580200195312	394.5417175292969	1338.596435546875	1243.901611328125	371.2438049316406	1472.146850585938	1017.733520507812	413.7008972167969	1453.950561523438	917.7128295898438	351.2239379882812	1318.953125	876.8402099609375	344.1958312988281	1103.197998046875	873.2274780273438	345.7521667480469	1090.325317382812	962.2398071289062	465.2561950683594	876.952880859375	842.3893432617188	375.779541015625	850.7586669921875	855.5006103515625	352.3525085449219	991.7117309570312	857.9715576171875	496.9924926757812	692.0209350585938	852.7647705078125	399.7374572753906	782.5409545898438	847.7115478515625	466.1338195800781	797.2740478515625	820.970458984375	537.052734375	1498.562622070312	1251.950317382812	544.7649536132812	1439.770629882812	1328.81005859375	551.9290161132812	1157.720458984375	1410.953125	519.4060668945312	1138.463500976562	1321.669555664062	692.9910888671875	935.6471557617188	1365.1640625	639.1403198242188	920.3958740234375	1435.008544921875	585.59033203125	1088.138549804688	1425.9248046875	706.1254272460938	746.7623291015625	1349.898559570312	725.6558227539062	842.642578125	1371.145751953125	670.015625	839.8045654296875	1429.652954101562	500.625244140625	1676.791259765625	1141.02783203125	538.9207153320312	1701.567504882812	926.8258056640625	621.3070068359375	1725.539306640625	1023.64453125	406.9396667480469	1657.21630859375	1041.80224609375	435.5569458007812	986.0361938476562	946.5105590820312	598.8428955078125	996.0718994140625	1282.507202148438	659.1624755859375	1029.609008789062	1206.239990234375	572.1342163085938	1020.712219238281	964.3728637695312	623.0989379882812	500.9739074707031	956.49169921875	565.2304077148438	636.7291870117188	932.2041625976562	604.6275634765625	40.22838973999023	1039.130004882812	616.4727783203125	265.4468994140625	980.98681640625	790.409912109375	44.12424468994141	921.8472290039062	783.4384155273438	41.43046188354492	991.042724609375	666.6642456054688	40.83077239990234	942.7904663085938	606.8672485351562	39.41294097900391	1123.246337890625	620.2794799804688	496.9533996582031	1324.579956054688	651.4112548828125	769.6708374023438	1289.4619140625	213.4629516601562	248.5063323974609	1477.400634765625	552.2120971679688	385.7835083007812	1342.2431640625	321.5025634765625	55.13566970825195	1449.515258789062	298.7150268554688	101.7759323120117	1398.292846679688	263.9161987304688	146.8135375976562	1513.980712890625	181.1513214111328	284.1025695800781	1407.718139648438	
99	0.98	423.9626159667969	1044.012817382812	1204.892211914062	382.296875	1043.457275390625	1089.880859375	405.3566284179688	1080.5322265625	1150.710571289062	645.4766845703125	1290.062866210938	1043.500244140625	369.1150207519531	1237.823852539062	1154.332153320312	420.6140747070312	1505.171630859375	1099.924072265625	611.8057250976562	1402.505126953125	1036.709838867188	401.7406616210938	1340.083374023438	1238.289184570312	377.1009216308594	1473.392211914062	1012.137878417969	419.1333618164062	1455.375122070312	911.8942260742188	357.0465698242188	1320.306640625	870.6044311523438	351.7232666015625	1104.423950195312	865.5613403320312	352.8464965820312	1090.791381835938	954.5326538085938	478.1196594238281	881.561767578125	832.4713745117188	389.3118286132812	852.9002075195312	844.864990234375	362.2600402832031	993.1734619140625	849.0938110351562	514.8098754882812	697.6600341796875	839.9440307617188	415.0334777832031	785.4651489257812	836.0525512695312	481.0734558105469	802.44189453125	809.6503295898438	544.2607421875	1500.032348632812	1245.349365234375	552.5618896484375	1441.340576171875	1322.243286132812	561.1873779296875	1158.973022460938	1404.111206054688	527.7288208007812	1139.861450195312	1315.180541992188	703.8200073242188	938.4757080078125	1354.90185546875	651.0922241210938	922.2295532226562	1425.44580078125	595.7075805664062	1089.562744140625	1418.33203125	719.0006713867188	749.9410400390625	1338.261108398438	737.7103881835938	845.9597778320312	1359.840209960938	682.8661499023438	842.0374145507812	1419.143676757812	507.6574401855469	1678.234252929688	1134.314086914062	544.3700561523438	1702.246215820312	920.0029907226562	627.6074829101562	1726.550048828125	1015.936279296875	413.2760925292969	1658.536376953125	1035.777465820312	440.2912902832031	986.7272338867188	941.2401733398438	606.3296508789062	997.1273193359375	1275.662719726562	665.849365234375	1030.9609375	1198.95947265625	576.7597045898438	1021.794128417969	957.8633422851562	625.021728515625	500.69921875	954.529052734375	568.1508178710938	636.7230834960938	929.2125244140625	604.5805053710938	40.15853881835938	1039.030639648438	617.2242431640625	265.3232116699219	979.9369506835938	790.4527587890625	44.12966537475586	921.981201171875	783.4390869140625	41.47560119628906	991.2020874023438	666.696044921875	40.77372741699219	942.7686767578125	606.73095703125	39.44695281982422	1123.204833984375	639.1871337890625	497.3785095214844	1312.909912109375	662.6416015625	771.2366333007812	1280.734619140625	235.1533813476562	248.2969207763672	1468.3154296875	572.009765625	386.1967163085938	1330.4794921875	348.9214782714844	58.64482116699219	1442.020751953125	322.893798828125	102.6659698486328	1390.517944335938	289.76318359375	149.4781799316406	1505.9140625	200.7279510498047	281.8080444335938	1398.629150390625	
